<svg width="100" height="100" viewBox="0 0 500 500" fill="none" xmlns="http://www.w3.org/2000/svg">
<path d="M224.311 474.47L61.1006 387.892C43.3292 378.465 32.2131 359.998 32.2007 339.881L32.0908 160.527C32.0785 140.41 43.172 121.929 60.9319 112.481L224.036 25.703C239.986 17.2175 259.108 17.2057 275.067 25.6718L438.278 112.249C456.05 121.676 467.166 140.144 467.178 160.261L467.288 339.614C467.3 359.731 456.207 378.212 438.447 387.661L275.342 474.438C259.393 482.924 240.271 482.936 224.311 474.47Z" fill="url(#paint0_linear_17_5754)"/>
<mask id="mask0_17_5754" style="mask-type:alpha" maskUnits="userSpaceOnUse" x="32" y="19" width="436" height="462">
<path d="M224.311 474.47L61.1006 387.892C43.3292 378.465 32.2131 359.998 32.2007 339.881L32.0908 160.527C32.0785 140.41 43.172 121.929 60.9319 112.481L224.036 25.703C239.986 17.2175 259.108 17.2057 275.067 25.6718L438.278 112.249C456.05 121.676 467.166 140.144 467.178 160.261L467.288 339.614C467.3 359.731 456.207 378.212 438.447 387.661L275.342 474.438C259.393 482.924 240.271 482.936 224.311 474.47Z" fill="#D9D9D9"/>
</mask>
<g mask="url(#mask0_17_5754)">
<path d="M32.4672 127.184L32.4246 161.175L222.633 473.579L249.835 488.009L277.019 473.546L467.174 161.175L467.152 127.184L275.067 25.6718C259.108 17.2057 239.986 17.2175 224.036 25.703L32.4672 127.184Z" fill="url(#paint1_linear_17_5754)"/>
<g style="mix-blend-mode:plus-darker" filter="url(#filter0_f_17_5754)">
<path d="M263.428 481.205L460.36 127.576" stroke="black" stroke-opacity="0.3" stroke-width="6.79824"/>
</g>
<g style="mix-blend-mode:plus-darker" filter="url(#filter1_f_17_5754)">
<path d="M236.234 481.218L38.8687 127.831" stroke="black" stroke-opacity="0.3" stroke-width="6.79824"/>
</g>
<g opacity="0.5">
<path d="M275.051 25.7015C259.105 17.2167 239.983 17.216 224.036 25.7001L168.829 54.6471L153.286 62.6893C130.423 74.5191 118.985 100.758 125.88 125.56L222.633 473.576L223.611 474.107C239.626 482.789 258.925 482.876 275.018 474.34L276.454 473.578L373.822 126.335C380.863 101.225 368.962 74.6748 345.801 62.6907L330.258 54.6485L275.051 25.7015Z" fill="url(#paint2_linear_17_5754)" style="mix-blend-mode:soft-light"/>
</g>
<g opacity="0.6">
<mask id="mask1_17_5754" style="mask-type:alpha" maskUnits="userSpaceOnUse" x="32" y="19" width="436" height="470">
<path d="M32.4672 127.184L32.4246 161.175L222.633 473.579L249.835 488.009L277.019 473.546L467.174 161.175L467.152 127.184L275.067 25.6718C259.108 17.2057 239.986 17.2175 224.036 25.703L32.4672 127.184Z" fill="url(#paint3_linear_17_5754)"/>
</mask>
<g mask="url(#mask1_17_5754)">
<g filter="url(#filter2_f_17_5754)">
<circle cx="249.164" cy="432.227" r="76.2448" fill="#FFE600"/>
</g>
<g filter="url(#filter3_f_17_5754)">
<circle cx="246.629" cy="439.852" r="33.8866" fill="#FFC700"/>
</g>
</g>
</g>
<g style="mix-blend-mode:overlay">
<path d="M32.4672 127.184L32.4246 161.175L222.633 473.579L249.835 488.009L277.019 473.546L467.174 161.175L467.152 127.184L275.067 25.6718C259.108 17.2057 239.986 17.2175 224.036 25.703L32.4672 127.184Z" fill="url(#paint4_linear_17_5754)" fill-opacity="0.4"/>
</g>
<path d="M205.304 358.991C207.359 354.412 202.944 349.986 198.378 352.047C197.388 352.504 196.627 353.268 196.17 354.26C194.039 358.839 198.53 363.265 203.097 361.204C204.086 360.746 204.847 359.983 205.304 358.991Z" fill="white" fill-opacity="0.5" style="mix-blend-mode:soft-light"/>
<g style="mix-blend-mode:soft-light" filter="url(#filter4_f_17_5754)">
<path d="M348.239 319.113C349.609 316.06 346.666 313.11 343.622 314.483C342.962 314.789 342.455 315.297 342.15 315.959C340.73 319.011 343.723 321.962 346.768 320.589C347.428 320.283 347.935 319.774 348.239 319.113Z" fill="white" fill-opacity="0.5" style="mix-blend-mode:soft-light"/>
</g>
<path d="M341.442 285.122C342.812 282.069 339.868 279.118 336.824 280.492C336.164 280.797 335.657 281.306 335.353 281.968C333.932 285.02 336.926 287.971 339.97 286.597C340.63 286.292 341.137 285.783 341.442 285.122Z" fill="white" style="mix-blend-mode:soft-light"/>
<path d="M314.248 346.306C315.618 343.253 312.675 340.303 309.631 341.676C308.971 341.981 308.464 342.49 308.159 343.152C306.738 346.204 309.732 349.155 312.777 347.781C313.436 347.476 313.944 346.967 314.248 346.306Z" fill="white" style="mix-blend-mode:soft-light"/>
<path d="M293.923 421.451C295.019 419.009 292.664 416.648 290.229 417.747C289.701 417.991 289.295 418.398 289.052 418.927C287.915 421.369 290.31 423.73 292.746 422.631C293.273 422.387 293.679 421.98 293.923 421.451Z" fill="white" style="mix-blend-mode:soft-light"/>
<path d="M232.67 400.692C234.04 397.64 231.097 394.689 228.053 396.062C227.393 396.368 226.886 396.876 226.581 397.538C225.16 400.59 228.154 403.541 231.199 402.168C231.858 401.862 232.366 401.354 232.67 400.692Z" fill="white" fill-opacity="0.5" style="mix-blend-mode:soft-light"/>
<path d="M253.134 367.065C254.23 364.623 251.875 362.263 249.44 363.362C248.912 363.606 248.506 364.013 248.263 364.542C247.126 366.984 249.521 369.345 251.957 368.246C252.484 368.002 252.89 367.594 253.134 367.065Z" fill="white" fill-opacity="0.5" style="mix-blend-mode:soft-light"/>
<g style="mix-blend-mode:soft-light" filter="url(#filter5_f_17_5754)">
<path d="M273.459 325.911C274.829 322.858 271.886 319.908 268.842 321.281C268.182 321.586 267.675 322.095 267.37 322.757C265.949 325.809 268.943 328.76 271.988 327.386C272.647 327.081 273.155 326.572 273.459 325.911Z" fill="white" style="mix-blend-mode:soft-light"/>
</g>
<path d="M171.485 319.113C172.855 316.06 169.912 313.11 166.868 314.483C166.208 314.789 165.701 315.297 165.397 315.959C163.976 319.011 166.97 321.962 170.014 320.589C170.674 320.283 171.181 319.774 171.485 319.113Z" fill="white" style="mix-blend-mode:soft-light"/>
<path d="M164.757 346.67C165.853 344.228 163.498 341.868 161.063 342.967C160.535 343.211 160.129 343.618 159.886 344.147C158.749 346.589 161.144 348.95 163.58 347.851C164.107 347.607 164.513 347.199 164.757 346.67Z" fill="white" fill-opacity="0.5" style="mix-blend-mode:soft-light"/>
<g style="mix-blend-mode:soft-light" filter="url(#filter6_f_17_5754)">
<path d="M144.119 291.009C146.174 286.43 141.76 282.004 137.193 284.065C136.204 284.523 135.443 285.286 134.986 286.278C132.855 290.857 137.345 295.283 141.912 293.222C142.902 292.765 143.663 292.001 144.119 291.009Z" fill="white" fill-opacity="0.5" style="mix-blend-mode:soft-light"/>
</g>
<path d="M259.932 271.89C261.028 269.447 258.673 267.087 256.238 268.186C255.71 268.43 255.304 268.837 255.06 269.366C253.924 271.808 256.319 274.169 258.754 273.07C259.282 272.826 259.688 272.419 259.932 271.89Z" fill="white" style="mix-blend-mode:soft-light"/>
<path d="M219.073 305.517C220.443 302.464 217.5 299.513 214.456 300.887C213.796 301.192 213.289 301.701 212.984 302.363C211.564 305.415 214.557 308.366 217.602 306.992C218.262 306.687 218.769 306.178 219.073 305.517Z" fill="white" style="mix-blend-mode:soft-light"/>
<path d="M253.065 414.289C254.435 411.236 251.492 408.285 248.447 409.659C247.787 409.964 247.28 410.473 246.976 411.135C245.555 414.187 248.549 417.138 251.593 415.764C252.253 415.459 252.76 414.95 253.065 414.289Z" fill="white" fill-opacity="0.5" style="mix-blend-mode:soft-light"/>
<g style="mix-blend-mode:soft-light" filter="url(#filter7_f_17_5754)">
<path d="M225.698 433.772C227.753 429.193 223.339 424.767 218.772 426.827C217.783 427.285 217.022 428.048 216.565 429.04C214.434 433.619 218.925 438.046 223.491 435.985C224.481 435.527 225.242 434.764 225.698 433.772Z" fill="white" fill-opacity="0.5" style="mix-blend-mode:soft-light"/>
</g>
<path d="M253.065 455.078C254.435 452.025 251.492 449.075 248.447 450.448C247.787 450.753 247.28 451.262 246.976 451.924C245.555 454.976 248.549 457.927 251.593 456.553C252.253 456.248 252.76 455.739 253.065 455.078Z" fill="white" fill-opacity="0.5" style="mix-blend-mode:soft-light"/>
<path d="M287.056 441.481C288.426 438.429 285.483 435.478 282.438 436.852C281.779 437.157 281.271 437.666 280.967 438.327C279.546 441.38 282.54 444.33 285.584 442.957C286.244 442.651 286.751 442.143 287.056 441.481Z" fill="white" style="mix-blend-mode:soft-light"/>
<path d="M300.722 394.258C301.818 391.816 299.463 389.456 297.028 390.554C296.5 390.799 296.094 391.206 295.85 391.735C294.714 394.177 297.109 396.538 299.544 395.439C300.072 395.194 300.478 394.787 300.722 394.258Z" fill="white" fill-opacity="0.5" style="mix-blend-mode:soft-light"/>
<path d="M300.652 291.92C302.022 288.868 299.079 285.917 296.035 287.29C295.375 287.596 294.868 288.104 294.564 288.766C293.143 291.818 296.137 294.769 299.181 293.396C299.841 293.09 300.348 292.582 300.652 291.92Z" fill="white" style="mix-blend-mode:soft-light"/>
<g style="mix-blend-mode:plus-darker" filter="url(#filter8_f_17_5754)">
<path d="M263.273 229.67L453.562 127.58" stroke="black" stroke-opacity="0.2" stroke-width="6.79824"/>
</g>
<g style="mix-blend-mode:plus-darker" filter="url(#filter9_f_17_5754)">
<path d="M249.677 229.677L59.2636 127.82" stroke="black" stroke-opacity="0.2" stroke-width="6.79824"/>
</g>
<path d="M32.0708 127.836L224.161 229.733C240.121 238.199 259.243 238.187 275.192 229.702L467.158 127.569L249.544 12.1323L32.0708 127.836Z" fill="url(#paint5_linear_17_5754)"/>
</g>
<g filter="url(#filter10_i_17_5754)">
<ellipse cx="22.5202" cy="21.6351" rx="22.5202" ry="21.6351" transform="matrix(-0.906308 0.422618 0.882948 0.469472 249.574 45.3472)" fill="#F1A71B"/>
<ellipse cx="22.5202" cy="21.6351" rx="22.5202" ry="21.6351" transform="matrix(-0.906308 0.422618 0.882948 0.469472 249.574 45.3472)" fill="black" fill-opacity="0.72"/>
</g>
<g filter="url(#filter11_i_17_5754)">
<ellipse cx="22.5202" cy="21.6351" rx="22.5202" ry="21.6351" transform="matrix(-0.906308 0.422618 0.882948 0.469472 140.803 106.531)" fill="#F1A71B"/>
<ellipse cx="22.5202" cy="21.6351" rx="22.5202" ry="21.6351" transform="matrix(-0.906308 0.422618 0.882948 0.469472 140.803 106.531)" fill="black" fill-opacity="0.72"/>
</g>
<g filter="url(#filter12_i_17_5754)">
<ellipse cx="22.5202" cy="21.6351" rx="22.5202" ry="21.6351" transform="matrix(-0.906308 0.422618 0.882948 0.469472 358.346 106.531)" fill="#F1A71B"/>
<ellipse cx="22.5202" cy="21.6351" rx="22.5202" ry="21.6351" transform="matrix(-0.906308 0.422618 0.882948 0.469472 358.346 106.531)" fill="black" fill-opacity="0.72"/>
</g>
<g filter="url(#filter13_i_17_5754)">
<ellipse cx="22.5202" cy="21.6351" rx="22.5202" ry="21.6351" transform="matrix(-0.906308 0.422618 0.882948 0.469472 249.574 160.918)" fill="#F1A71B"/>
<ellipse cx="22.5202" cy="21.6351" rx="22.5202" ry="21.6351" transform="matrix(-0.906308 0.422618 0.882948 0.469472 249.574 160.918)" fill="black" fill-opacity="0.72"/>
</g>
<defs>
<filter id="filter0_f_17_5754" x="206.072" y="71.5364" width="311.643" height="465.708" filterUnits="userSpaceOnUse" color-interpolation-filters="sRGB">
<feFlood flood-opacity="0" result="BackgroundImageFix"/>
<feBlend mode="normal" in="SourceGraphic" in2="BackgroundImageFix" result="shape"/>
<feGaussianBlur stdDeviation="27.193" result="effect1_foregroundBlur_17_5754"/>
</filter>
<filter id="filter1_f_17_5754" x="-18.4845" y="71.7874" width="312.073" height="465.474" filterUnits="userSpaceOnUse" color-interpolation-filters="sRGB">
<feFlood flood-opacity="0" result="BackgroundImageFix"/>
<feBlend mode="normal" in="SourceGraphic" in2="BackgroundImageFix" result="shape"/>
<feGaussianBlur stdDeviation="27.193" result="effect1_foregroundBlur_17_5754"/>
</filter>
<filter id="filter2_f_17_5754" x="92.4383" y="275.501" width="313.451" height="313.451" filterUnits="userSpaceOnUse" color-interpolation-filters="sRGB">
<feFlood flood-opacity="0" result="BackgroundImageFix"/>
<feBlend mode="normal" in="SourceGraphic" in2="BackgroundImageFix" result="shape"/>
<feGaussianBlur stdDeviation="40.2403" result="effect1_foregroundBlur_17_5754"/>
</filter>
<filter id="filter3_f_17_5754" x="86.2949" y="279.519" width="320.668" height="320.667" filterUnits="userSpaceOnUse" color-interpolation-filters="sRGB">
<feFlood flood-opacity="0" result="BackgroundImageFix"/>
<feBlend mode="normal" in="SourceGraphic" in2="BackgroundImageFix" result="shape"/>
<feGaussianBlur stdDeviation="63.2236" result="effect1_foregroundBlur_17_5754"/>
</filter>
<filter id="filter4_f_17_5754" x="337.028" y="309.378" width="16.3154" height="16.3159" filterUnits="userSpaceOnUse" color-interpolation-filters="sRGB">
<feFlood flood-opacity="0" result="BackgroundImageFix"/>
<feBlend mode="normal" in="SourceGraphic" in2="BackgroundImageFix" result="shape"/>
<feGaussianBlur stdDeviation="2.37938" result="effect1_foregroundBlur_17_5754"/>
</filter>
<filter id="filter5_f_17_5754" x="262.248" y="316.176" width="16.3154" height="16.3159" filterUnits="userSpaceOnUse" color-interpolation-filters="sRGB">
<feFlood flood-opacity="0" result="BackgroundImageFix"/>
<feBlend mode="normal" in="SourceGraphic" in2="BackgroundImageFix" result="shape"/>
<feGaussianBlur stdDeviation="2.37938" result="effect1_foregroundBlur_17_5754"/>
</filter>
<filter id="filter6_f_17_5754" x="129.682" y="278.786" width="19.7148" height="19.7148" filterUnits="userSpaceOnUse" color-interpolation-filters="sRGB">
<feFlood flood-opacity="0" result="BackgroundImageFix"/>
<feBlend mode="normal" in="SourceGraphic" in2="BackgroundImageFix" result="shape"/>
<feGaussianBlur stdDeviation="2.37938" result="effect1_foregroundBlur_17_5754"/>
</filter>
<filter id="filter7_f_17_5754" x="211.261" y="421.549" width="19.7148" height="19.7148" filterUnits="userSpaceOnUse" color-interpolation-filters="sRGB">
<feFlood flood-opacity="0" result="BackgroundImageFix"/>
<feBlend mode="normal" in="SourceGraphic" in2="BackgroundImageFix" result="shape"/>
<feGaussianBlur stdDeviation="2.37938" result="effect1_foregroundBlur_17_5754"/>
</filter>
<filter id="filter8_f_17_5754" x="207.28" y="70.199" width="302.275" height="216.852" filterUnits="userSpaceOnUse" color-interpolation-filters="sRGB">
<feFlood flood-opacity="0" result="BackgroundImageFix"/>
<feBlend mode="normal" in="SourceGraphic" in2="BackgroundImageFix" result="shape"/>
<feGaussianBlur stdDeviation="27.193" result="effect1_foregroundBlur_17_5754"/>
</filter>
<filter id="filter9_f_17_5754" x="3.27424" y="70.4368" width="302.392" height="216.623" filterUnits="userSpaceOnUse" color-interpolation-filters="sRGB">
<feFlood flood-opacity="0" result="BackgroundImageFix"/>
<feBlend mode="normal" in="SourceGraphic" in2="BackgroundImageFix" result="shape"/>
<feGaussianBlur stdDeviation="27.193" result="effect1_foregroundBlur_17_5754"/>
</filter>
<filter id="filter10_i_17_5754" x="220.312" y="51.1025" width="55.9102" height="27.8384" filterUnits="userSpaceOnUse" color-interpolation-filters="sRGB">
<feFlood flood-opacity="0" result="BackgroundImageFix"/>
<feBlend mode="normal" in="SourceGraphic" in2="BackgroundImageFix" result="shape"/>
<feColorMatrix in="SourceAlpha" type="matrix" values="0 0 0 0 0 0 0 0 0 0 0 0 0 0 0 0 0 0 127 0" result="hardAlpha"/>
<feMorphology radius="40.7894" operator="dilate" in="SourceAlpha" result="effect1_innerShadow_17_5754"/>
<feOffset dy="6.79824"/>
<feGaussianBlur stdDeviation="20.3947"/>
<feComposite in2="hardAlpha" operator="arithmetic" k2="-1" k3="1"/>
<feColorMatrix type="matrix" values="0 0 0 0 0 0 0 0 0 0 0 0 0 0 0 0 0 0 0.48 0"/>
<feBlend mode="normal" in2="shape" result="effect1_innerShadow_17_5754"/>
</filter>
<filter id="filter11_i_17_5754" x="111.54" y="112.287" width="55.9102" height="27.8384" filterUnits="userSpaceOnUse" color-interpolation-filters="sRGB">
<feFlood flood-opacity="0" result="BackgroundImageFix"/>
<feBlend mode="normal" in="SourceGraphic" in2="BackgroundImageFix" result="shape"/>
<feColorMatrix in="SourceAlpha" type="matrix" values="0 0 0 0 0 0 0 0 0 0 0 0 0 0 0 0 0 0 127 0" result="hardAlpha"/>
<feMorphology radius="40.7894" operator="dilate" in="SourceAlpha" result="effect1_innerShadow_17_5754"/>
<feOffset dy="6.79824"/>
<feGaussianBlur stdDeviation="20.3947"/>
<feComposite in2="hardAlpha" operator="arithmetic" k2="-1" k3="1"/>
<feColorMatrix type="matrix" values="0 0 0 0 0 0 0 0 0 0 0 0 0 0 0 0 0 0 0.48 0"/>
<feBlend mode="normal" in2="shape" result="effect1_innerShadow_17_5754"/>
</filter>
<filter id="filter12_i_17_5754" x="329.083" y="112.287" width="55.9102" height="27.8384" filterUnits="userSpaceOnUse" color-interpolation-filters="sRGB">
<feFlood flood-opacity="0" result="BackgroundImageFix"/>
<feBlend mode="normal" in="SourceGraphic" in2="BackgroundImageFix" result="shape"/>
<feColorMatrix in="SourceAlpha" type="matrix" values="0 0 0 0 0 0 0 0 0 0 0 0 0 0 0 0 0 0 127 0" result="hardAlpha"/>
<feMorphology radius="40.7894" operator="dilate" in="SourceAlpha" result="effect1_innerShadow_17_5754"/>
<feOffset dy="6.79824"/>
<feGaussianBlur stdDeviation="20.3947"/>
<feComposite in2="hardAlpha" operator="arithmetic" k2="-1" k3="1"/>
<feColorMatrix type="matrix" values="0 0 0 0 0 0 0 0 0 0 0 0 0 0 0 0 0 0 0.48 0"/>
<feBlend mode="normal" in2="shape" result="effect1_innerShadow_17_5754"/>
</filter>
<filter id="filter13_i_17_5754" x="220.312" y="166.673" width="55.9102" height="27.8384" filterUnits="userSpaceOnUse" color-interpolation-filters="sRGB">
<feFlood flood-opacity="0" result="BackgroundImageFix"/>
<feBlend mode="normal" in="SourceGraphic" in2="BackgroundImageFix" result="shape"/>
<feColorMatrix in="SourceAlpha" type="matrix" values="0 0 0 0 0 0 0 0 0 0 0 0 0 0 0 0 0 0 127 0" result="hardAlpha"/>
<feMorphology radius="40.7894" operator="dilate" in="SourceAlpha" result="effect1_innerShadow_17_5754"/>
<feOffset dy="6.79824"/>
<feGaussianBlur stdDeviation="20.3947"/>
<feComposite in2="hardAlpha" operator="arithmetic" k2="-1" k3="1"/>
<feColorMatrix type="matrix" values="0 0 0 0 0 0 0 0 0 0 0 0 0 0 0 0 0 0 0.48 0"/>
<feBlend mode="normal" in2="shape" result="effect1_innerShadow_17_5754"/>
</filter>
<linearGradient id="paint0_linear_17_5754" x1="239.367" y1="46.1298" x2="239.644" y2="498.213" gradientUnits="userSpaceOnUse">
<stop stop-color="white"/>
<stop offset="0.53" stop-color="#FAFAFB"/>
<stop offset="1" stop-color="#FFF0D2"/>
</linearGradient>
<linearGradient id="paint1_linear_17_5754" x1="249.544" y1="12.1323" x2="249.835" y2="488.009" gradientUnits="userSpaceOnUse">
<stop stop-color="#FFD449"/>
<stop offset="1" stop-color="#F5A200"/>
</linearGradient>
<linearGradient id="paint2_linear_17_5754" x1="249.968" y1="12.1291" x2="250.259" y2="488.007" gradientUnits="userSpaceOnUse">
<stop offset="0.405" stop-color="white" stop-opacity="0"/>
<stop offset="1" stop-color="white"/>
</linearGradient>
<linearGradient id="paint3_linear_17_5754" x1="249.544" y1="12.1323" x2="249.835" y2="488.009" gradientUnits="userSpaceOnUse">
<stop stop-color="#FFD449"/>
<stop offset="1" stop-color="#F5A200"/>
</linearGradient>
<linearGradient id="paint4_linear_17_5754" x1="249.835" y1="11.6142" x2="249.835" y2="487.491" gradientUnits="userSpaceOnUse">
<stop/>
<stop offset="1" stop-opacity="0"/>
</linearGradient>
<linearGradient id="paint5_linear_17_5754" x1="249.544" y1="12.1323" x2="249.685" y2="243.272" gradientUnits="userSpaceOnUse">
<stop offset="0.265" stop-color="white"/>
<stop offset="1" stop-color="#FFF4E0"/>
</linearGradient>
</defs>
</svg>
